<?xml version="1.0" encoding="utf-8" standalone="no"?>
<!DOCTYPE svg PUBLIC "-//W3C//DTD SVG 1.1//EN"
  "http://www.w3.org/Graphics/SVG/1.1/DTD/svg11.dtd">
<!-- Created with matplotlib (https://matplotlib.org/) -->
<svg height="576pt" version="1.1" viewBox="0 0 720 576" width="720pt" xmlns="http://www.w3.org/2000/svg" xmlns:xlink="http://www.w3.org/1999/xlink">
 <metadata>
  <rdf:RDF xmlns:cc="http://creativecommons.org/ns#" xmlns:dc="http://purl.org/dc/elements/1.1/" xmlns:rdf="http://www.w3.org/1999/02/22-rdf-syntax-ns#">
   <cc:Work>
    <dc:type rdf:resource="http://purl.org/dc/dcmitype/StillImage"/>
    <dc:date>2021-07-21T20:22:44.943124</dc:date>
    <dc:format>image/svg+xml</dc:format>
    <dc:creator>
     <cc:Agent>
      <dc:title>Matplotlib v3.3.4, https://matplotlib.org/</dc:title>
     </cc:Agent>
    </dc:creator>
   </cc:Work>
  </rdf:RDF>
 </metadata>
 <defs>
  <style type="text/css">*{stroke-linecap:butt;stroke-linejoin:round;}</style>
 </defs>
 <g id="figure_1">
  <g id="patch_1">
   <path d="M 0 576 
L 720 576 
L 720 0 
L 0 0 
z
" style="fill:none;"/>
  </g>
  <g id="axes_1">
   <g id="patch_2">
    <path d="M 90 504 
L 648 504 
L 648 69.12 
L 90 69.12 
z
" style="fill:#ffffff;"/>
   </g>
   <g id="PathCollection_1">
    <defs>
     <path d="M 0 3 
C 0.795609 3 1.55874 2.683901 2.12132 2.12132 
C 2.683901 1.55874 3 0.795609 3 0 
C 3 -0.795609 2.683901 -1.55874 2.12132 -2.12132 
C 1.55874 -2.683901 0.795609 -3 0 -3 
C -0.795609 -3 -1.55874 -2.683901 -2.12132 -2.12132 
C -2.683901 -1.55874 -3 -0.795609 -3 0 
C -3 0.795609 -2.683901 1.55874 -2.12132 2.12132 
C -1.55874 2.683901 -0.795609 3 0 3 
z
" id="m8c2df93eb6" style="stroke:#ff0000;"/>
    </defs>
    <g clip-path="url(#p8a8741a0eb)">
     <use style="fill:#ff0000;stroke:#ff0000;" x="115.363636" xlink:href="#m8c2df93eb6" y="371.276883"/>
    </g>
   </g>
   <g id="PathCollection_2">
    <g clip-path="url(#p8a8741a0eb)">
     <use style="fill:#ff0000;stroke:#ff0000;" x="391.838948" xlink:href="#m8c2df93eb6" y="89.940928"/>
    </g>
   </g>
   <g id="PathCollection_3">
    <g clip-path="url(#p8a8741a0eb)">
     <use style="fill:#ff0000;stroke:#ff0000;" x="334.710605" xlink:href="#m8c2df93eb6" y="482.942486"/>
    </g>
   </g>
   <g id="PathCollection_4">
    <g clip-path="url(#p8a8741a0eb)">
     <use style="fill:#ff0000;stroke:#ff0000;" x="622.299707" xlink:href="#m8c2df93eb6" y="88.887273"/>
    </g>
   </g>
   <g id="PathCollection_5">
    <g clip-path="url(#p8a8741a0eb)">
     <use style="fill:#ff0000;stroke:#ff0000;" x="519.929002" xlink:href="#m8c2df93eb6" y="484.232727"/>
    </g>
   </g>
   <g id="PathCollection_6">
    <g clip-path="url(#p8a8741a0eb)">
     <use style="fill:#ff0000;stroke:#ff0000;" x="621.782107" xlink:href="#m8c2df93eb6" y="409.562897"/>
    </g>
   </g>
   <g id="matplotlib.axis_1">
    <g id="xtick_1">
     <g id="line2d_1">
      <defs>
       <path d="M 0 0 
L 0 3.5 
" id="m6107995928" style="stroke:#000000;stroke-width:0.8;"/>
      </defs>
      <g>
       <use style="stroke:#000000;stroke-width:0.8;" x="115.363636" xlink:href="#m6107995928" y="504"/>
      </g>
     </g>
     <g id="text_1">
      <!-- 0 -->
      <g transform="translate(112.182386 518.598438)scale(0.1 -0.1)">
       <defs>
        <path d="M 31.78125 66.40625 
Q 24.171875 66.40625 20.328125 58.90625 
Q 16.5 51.421875 16.5 36.375 
Q 16.5 21.390625 20.328125 13.890625 
Q 24.171875 6.390625 31.78125 6.390625 
Q 39.453125 6.390625 43.28125 13.890625 
Q 47.125 21.390625 47.125 36.375 
Q 47.125 51.421875 43.28125 58.90625 
Q 39.453125 66.40625 31.78125 66.40625 
z
M 31.78125 74.21875 
Q 44.046875 74.21875 50.515625 64.515625 
Q 56.984375 54.828125 56.984375 36.375 
Q 56.984375 17.96875 50.515625 8.265625 
Q 44.046875 -1.421875 31.78125 -1.421875 
Q 19.53125 -1.421875 13.0625 8.265625 
Q 6.59375 17.96875 6.59375 36.375 
Q 6.59375 54.828125 13.0625 64.515625 
Q 19.53125 74.21875 31.78125 74.21875 
z
" id="DejaVuSans-48"/>
       </defs>
       <use xlink:href="#DejaVuSans-48"/>
      </g>
     </g>
    </g>
    <g id="xtick_2">
     <g id="line2d_2">
      <g>
       <use style="stroke:#000000;stroke-width:0.8;" x="187.220985" xlink:href="#m6107995928" y="504"/>
      </g>
     </g>
     <g id="text_2">
      <!-- 25 -->
      <g transform="translate(180.858485 518.598438)scale(0.1 -0.1)">
       <defs>
        <path d="M 19.1875 8.296875 
L 53.609375 8.296875 
L 53.609375 0 
L 7.328125 0 
L 7.328125 8.296875 
Q 12.9375 14.109375 22.625 23.890625 
Q 32.328125 33.6875 34.8125 36.53125 
Q 39.546875 41.84375 41.421875 45.53125 
Q 43.3125 49.21875 43.3125 52.78125 
Q 43.3125 58.59375 39.234375 62.25 
Q 35.15625 65.921875 28.609375 65.921875 
Q 23.96875 65.921875 18.8125 64.3125 
Q 13.671875 62.703125 7.8125 59.421875 
L 7.8125 69.390625 
Q 13.765625 71.78125 18.9375 73 
Q 24.125 74.21875 28.421875 74.21875 
Q 39.75 74.21875 46.484375 68.546875 
Q 53.21875 62.890625 53.21875 53.421875 
Q 53.21875 48.921875 51.53125 44.890625 
Q 49.859375 40.875 45.40625 35.40625 
Q 44.1875 33.984375 37.640625 27.21875 
Q 31.109375 20.453125 19.1875 8.296875 
z
" id="DejaVuSans-50"/>
        <path d="M 10.796875 72.90625 
L 49.515625 72.90625 
L 49.515625 64.59375 
L 19.828125 64.59375 
L 19.828125 46.734375 
Q 21.96875 47.46875 24.109375 47.828125 
Q 26.265625 48.1875 28.421875 48.1875 
Q 40.625 48.1875 47.75 41.5 
Q 54.890625 34.8125 54.890625 23.390625 
Q 54.890625 11.625 47.5625 5.09375 
Q 40.234375 -1.421875 26.90625 -1.421875 
Q 22.3125 -1.421875 17.546875 -0.640625 
Q 12.796875 0.140625 7.71875 1.703125 
L 7.71875 11.625 
Q 12.109375 9.234375 16.796875 8.0625 
Q 21.484375 6.890625 26.703125 6.890625 
Q 35.15625 6.890625 40.078125 11.328125 
Q 45.015625 15.765625 45.015625 23.390625 
Q 45.015625 31 40.078125 35.4375 
Q 35.15625 39.890625 26.703125 39.890625 
Q 22.75 39.890625 18.8125 39.015625 
Q 14.890625 38.140625 10.796875 36.28125 
z
" id="DejaVuSans-53"/>
       </defs>
       <use xlink:href="#DejaVuSans-50"/>
       <use x="63.623047" xlink:href="#DejaVuSans-53"/>
      </g>
     </g>
    </g>
    <g id="xtick_3">
     <g id="line2d_3">
      <g>
       <use style="stroke:#000000;stroke-width:0.8;" x="259.078335" xlink:href="#m6107995928" y="504"/>
      </g>
     </g>
     <g id="text_3">
      <!-- 50 -->
      <g transform="translate(252.715835 518.598438)scale(0.1 -0.1)">
       <use xlink:href="#DejaVuSans-53"/>
       <use x="63.623047" xlink:href="#DejaVuSans-48"/>
      </g>
     </g>
    </g>
    <g id="xtick_4">
     <g id="line2d_4">
      <g>
       <use style="stroke:#000000;stroke-width:0.8;" x="330.935684" xlink:href="#m6107995928" y="504"/>
      </g>
     </g>
     <g id="text_4">
      <!-- 75 -->
      <g transform="translate(324.573184 518.598438)scale(0.1 -0.1)">
       <defs>
        <path d="M 8.203125 72.90625 
L 55.078125 72.90625 
L 55.078125 68.703125 
L 28.609375 0 
L 18.3125 0 
L 43.21875 64.59375 
L 8.203125 64.59375 
z
" id="DejaVuSans-55"/>
       </defs>
       <use xlink:href="#DejaVuSans-55"/>
       <use x="63.623047" xlink:href="#DejaVuSans-53"/>
      </g>
     </g>
    </g>
    <g id="xtick_5">
     <g id="line2d_5">
      <g>
       <use style="stroke:#000000;stroke-width:0.8;" x="402.793033" xlink:href="#m6107995928" y="504"/>
      </g>
     </g>
     <g id="text_5">
      <!-- 100 -->
      <g transform="translate(393.249283 518.598438)scale(0.1 -0.1)">
       <defs>
        <path d="M 12.40625 8.296875 
L 28.515625 8.296875 
L 28.515625 63.921875 
L 10.984375 60.40625 
L 10.984375 69.390625 
L 28.421875 72.90625 
L 38.28125 72.90625 
L 38.28125 8.296875 
L 54.390625 8.296875 
L 54.390625 0 
L 12.40625 0 
z
" id="DejaVuSans-49"/>
       </defs>
       <use xlink:href="#DejaVuSans-49"/>
       <use x="63.623047" xlink:href="#DejaVuSans-48"/>
       <use x="127.246094" xlink:href="#DejaVuSans-48"/>
      </g>
     </g>
    </g>
    <g id="xtick_6">
     <g id="line2d_6">
      <g>
       <use style="stroke:#000000;stroke-width:0.8;" x="474.650382" xlink:href="#m6107995928" y="504"/>
      </g>
     </g>
     <g id="text_6">
      <!-- 125 -->
      <g transform="translate(465.106632 518.598438)scale(0.1 -0.1)">
       <use xlink:href="#DejaVuSans-49"/>
       <use x="63.623047" xlink:href="#DejaVuSans-50"/>
       <use x="127.246094" xlink:href="#DejaVuSans-53"/>
      </g>
     </g>
    </g>
    <g id="xtick_7">
     <g id="line2d_7">
      <g>
       <use style="stroke:#000000;stroke-width:0.8;" x="546.507731" xlink:href="#m6107995928" y="504"/>
      </g>
     </g>
     <g id="text_7">
      <!-- 150 -->
      <g transform="translate(536.963981 518.598438)scale(0.1 -0.1)">
       <use xlink:href="#DejaVuSans-49"/>
       <use x="63.623047" xlink:href="#DejaVuSans-53"/>
       <use x="127.246094" xlink:href="#DejaVuSans-48"/>
      </g>
     </g>
    </g>
    <g id="xtick_8">
     <g id="line2d_8">
      <g>
       <use style="stroke:#000000;stroke-width:0.8;" x="618.36508" xlink:href="#m6107995928" y="504"/>
      </g>
     </g>
     <g id="text_8">
      <!-- 175 -->
      <g transform="translate(608.82133 518.598438)scale(0.1 -0.1)">
       <use xlink:href="#DejaVuSans-49"/>
       <use x="63.623047" xlink:href="#DejaVuSans-55"/>
       <use x="127.246094" xlink:href="#DejaVuSans-53"/>
      </g>
     </g>
    </g>
    <g id="text_9">
     <!-- Velocidade equivalente [m/s] -->
     <g transform="translate(296.072656 532.276562)scale(0.1 -0.1)">
      <defs>
       <path d="M 28.609375 0 
L 0.78125 72.90625 
L 11.078125 72.90625 
L 34.1875 11.53125 
L 57.328125 72.90625 
L 67.578125 72.90625 
L 39.796875 0 
z
" id="DejaVuSans-86"/>
       <path d="M 56.203125 29.59375 
L 56.203125 25.203125 
L 14.890625 25.203125 
Q 15.484375 15.921875 20.484375 11.0625 
Q 25.484375 6.203125 34.421875 6.203125 
Q 39.59375 6.203125 44.453125 7.46875 
Q 49.3125 8.734375 54.109375 11.28125 
L 54.109375 2.78125 
Q 49.265625 0.734375 44.1875 -0.34375 
Q 39.109375 -1.421875 33.890625 -1.421875 
Q 20.796875 -1.421875 13.15625 6.1875 
Q 5.515625 13.8125 5.515625 26.8125 
Q 5.515625 40.234375 12.765625 48.109375 
Q 20.015625 56 32.328125 56 
Q 43.359375 56 49.78125 48.890625 
Q 56.203125 41.796875 56.203125 29.59375 
z
M 47.21875 32.234375 
Q 47.125 39.59375 43.09375 43.984375 
Q 39.0625 48.390625 32.421875 48.390625 
Q 24.90625 48.390625 20.390625 44.140625 
Q 15.875 39.890625 15.1875 32.171875 
z
" id="DejaVuSans-101"/>
       <path d="M 9.421875 75.984375 
L 18.40625 75.984375 
L 18.40625 0 
L 9.421875 0 
z
" id="DejaVuSans-108"/>
       <path d="M 30.609375 48.390625 
Q 23.390625 48.390625 19.1875 42.75 
Q 14.984375 37.109375 14.984375 27.296875 
Q 14.984375 17.484375 19.15625 11.84375 
Q 23.34375 6.203125 30.609375 6.203125 
Q 37.796875 6.203125 41.984375 11.859375 
Q 46.1875 17.53125 46.1875 27.296875 
Q 46.1875 37.015625 41.984375 42.703125 
Q 37.796875 48.390625 30.609375 48.390625 
z
M 30.609375 56 
Q 42.328125 56 49.015625 48.375 
Q 55.71875 40.765625 55.71875 27.296875 
Q 55.71875 13.875 49.015625 6.21875 
Q 42.328125 -1.421875 30.609375 -1.421875 
Q 18.84375 -1.421875 12.171875 6.21875 
Q 5.515625 13.875 5.515625 27.296875 
Q 5.515625 40.765625 12.171875 48.375 
Q 18.84375 56 30.609375 56 
z
" id="DejaVuSans-111"/>
       <path d="M 48.78125 52.59375 
L 48.78125 44.1875 
Q 44.96875 46.296875 41.140625 47.34375 
Q 37.3125 48.390625 33.40625 48.390625 
Q 24.65625 48.390625 19.8125 42.84375 
Q 14.984375 37.3125 14.984375 27.296875 
Q 14.984375 17.28125 19.8125 11.734375 
Q 24.65625 6.203125 33.40625 6.203125 
Q 37.3125 6.203125 41.140625 7.25 
Q 44.96875 8.296875 48.78125 10.40625 
L 48.78125 2.09375 
Q 45.015625 0.34375 40.984375 -0.53125 
Q 36.96875 -1.421875 32.421875 -1.421875 
Q 20.0625 -1.421875 12.78125 6.34375 
Q 5.515625 14.109375 5.515625 27.296875 
Q 5.515625 40.671875 12.859375 48.328125 
Q 20.21875 56 33.015625 56 
Q 37.15625 56 41.109375 55.140625 
Q 45.0625 54.296875 48.78125 52.59375 
z
" id="DejaVuSans-99"/>
       <path d="M 9.421875 54.6875 
L 18.40625 54.6875 
L 18.40625 0 
L 9.421875 0 
z
M 9.421875 75.984375 
L 18.40625 75.984375 
L 18.40625 64.59375 
L 9.421875 64.59375 
z
" id="DejaVuSans-105"/>
       <path d="M 45.40625 46.390625 
L 45.40625 75.984375 
L 54.390625 75.984375 
L 54.390625 0 
L 45.40625 0 
L 45.40625 8.203125 
Q 42.578125 3.328125 38.25 0.953125 
Q 33.9375 -1.421875 27.875 -1.421875 
Q 17.96875 -1.421875 11.734375 6.484375 
Q 5.515625 14.40625 5.515625 27.296875 
Q 5.515625 40.1875 11.734375 48.09375 
Q 17.96875 56 27.875 56 
Q 33.9375 56 38.25 53.625 
Q 42.578125 51.265625 45.40625 46.390625 
z
M 14.796875 27.296875 
Q 14.796875 17.390625 18.875 11.75 
Q 22.953125 6.109375 30.078125 6.109375 
Q 37.203125 6.109375 41.296875 11.75 
Q 45.40625 17.390625 45.40625 27.296875 
Q 45.40625 37.203125 41.296875 42.84375 
Q 37.203125 48.484375 30.078125 48.484375 
Q 22.953125 48.484375 18.875 42.84375 
Q 14.796875 37.203125 14.796875 27.296875 
z
" id="DejaVuSans-100"/>
       <path d="M 34.28125 27.484375 
Q 23.390625 27.484375 19.1875 25 
Q 14.984375 22.515625 14.984375 16.5 
Q 14.984375 11.71875 18.140625 8.90625 
Q 21.296875 6.109375 26.703125 6.109375 
Q 34.1875 6.109375 38.703125 11.40625 
Q 43.21875 16.703125 43.21875 25.484375 
L 43.21875 27.484375 
z
M 52.203125 31.203125 
L 52.203125 0 
L 43.21875 0 
L 43.21875 8.296875 
Q 40.140625 3.328125 35.546875 0.953125 
Q 30.953125 -1.421875 24.3125 -1.421875 
Q 15.921875 -1.421875 10.953125 3.296875 
Q 6 8.015625 6 15.921875 
Q 6 25.140625 12.171875 29.828125 
Q 18.359375 34.515625 30.609375 34.515625 
L 43.21875 34.515625 
L 43.21875 35.40625 
Q 43.21875 41.609375 39.140625 45 
Q 35.0625 48.390625 27.6875 48.390625 
Q 23 48.390625 18.546875 47.265625 
Q 14.109375 46.140625 10.015625 43.890625 
L 10.015625 52.203125 
Q 14.9375 54.109375 19.578125 55.046875 
Q 24.21875 56 28.609375 56 
Q 40.484375 56 46.34375 49.84375 
Q 52.203125 43.703125 52.203125 31.203125 
z
" id="DejaVuSans-97"/>
       <path id="DejaVuSans-32"/>
       <path d="M 14.796875 27.296875 
Q 14.796875 17.390625 18.875 11.75 
Q 22.953125 6.109375 30.078125 6.109375 
Q 37.203125 6.109375 41.296875 11.75 
Q 45.40625 17.390625 45.40625 27.296875 
Q 45.40625 37.203125 41.296875 42.84375 
Q 37.203125 48.484375 30.078125 48.484375 
Q 22.953125 48.484375 18.875 42.84375 
Q 14.796875 37.203125 14.796875 27.296875 
z
M 45.40625 8.203125 
Q 42.578125 3.328125 38.25 0.953125 
Q 33.9375 -1.421875 27.875 -1.421875 
Q 17.96875 -1.421875 11.734375 6.484375 
Q 5.515625 14.40625 5.515625 27.296875 
Q 5.515625 40.1875 11.734375 48.09375 
Q 17.96875 56 27.875 56 
Q 33.9375 56 38.25 53.625 
Q 42.578125 51.265625 45.40625 46.390625 
L 45.40625 54.6875 
L 54.390625 54.6875 
L 54.390625 -20.796875 
L 45.40625 -20.796875 
z
" id="DejaVuSans-113"/>
       <path d="M 8.5 21.578125 
L 8.5 54.6875 
L 17.484375 54.6875 
L 17.484375 21.921875 
Q 17.484375 14.15625 20.5 10.265625 
Q 23.53125 6.390625 29.59375 6.390625 
Q 36.859375 6.390625 41.078125 11.03125 
Q 45.3125 15.671875 45.3125 23.6875 
L 45.3125 54.6875 
L 54.296875 54.6875 
L 54.296875 0 
L 45.3125 0 
L 45.3125 8.40625 
Q 42.046875 3.421875 37.71875 1 
Q 33.40625 -1.421875 27.6875 -1.421875 
Q 18.265625 -1.421875 13.375 4.4375 
Q 8.5 10.296875 8.5 21.578125 
z
M 31.109375 56 
z
" id="DejaVuSans-117"/>
       <path d="M 2.984375 54.6875 
L 12.5 54.6875 
L 29.59375 8.796875 
L 46.6875 54.6875 
L 56.203125 54.6875 
L 35.6875 0 
L 23.484375 0 
z
" id="DejaVuSans-118"/>
       <path d="M 54.890625 33.015625 
L 54.890625 0 
L 45.90625 0 
L 45.90625 32.71875 
Q 45.90625 40.484375 42.875 44.328125 
Q 39.84375 48.1875 33.796875 48.1875 
Q 26.515625 48.1875 22.3125 43.546875 
Q 18.109375 38.921875 18.109375 30.90625 
L 18.109375 0 
L 9.078125 0 
L 9.078125 54.6875 
L 18.109375 54.6875 
L 18.109375 46.1875 
Q 21.34375 51.125 25.703125 53.5625 
Q 30.078125 56 35.796875 56 
Q 45.21875 56 50.046875 50.171875 
Q 54.890625 44.34375 54.890625 33.015625 
z
" id="DejaVuSans-110"/>
       <path d="M 18.3125 70.21875 
L 18.3125 54.6875 
L 36.8125 54.6875 
L 36.8125 47.703125 
L 18.3125 47.703125 
L 18.3125 18.015625 
Q 18.3125 11.328125 20.140625 9.421875 
Q 21.96875 7.515625 27.59375 7.515625 
L 36.8125 7.515625 
L 36.8125 0 
L 27.59375 0 
Q 17.1875 0 13.234375 3.875 
Q 9.28125 7.765625 9.28125 18.015625 
L 9.28125 47.703125 
L 2.6875 47.703125 
L 2.6875 54.6875 
L 9.28125 54.6875 
L 9.28125 70.21875 
z
" id="DejaVuSans-116"/>
       <path d="M 8.59375 75.984375 
L 29.296875 75.984375 
L 29.296875 69 
L 17.578125 69 
L 17.578125 -6.203125 
L 29.296875 -6.203125 
L 29.296875 -13.1875 
L 8.59375 -13.1875 
z
" id="DejaVuSans-91"/>
       <path d="M 52 44.1875 
Q 55.375 50.25 60.0625 53.125 
Q 64.75 56 71.09375 56 
Q 79.640625 56 84.28125 50.015625 
Q 88.921875 44.046875 88.921875 33.015625 
L 88.921875 0 
L 79.890625 0 
L 79.890625 32.71875 
Q 79.890625 40.578125 77.09375 44.375 
Q 74.3125 48.1875 68.609375 48.1875 
Q 61.625 48.1875 57.5625 43.546875 
Q 53.515625 38.921875 53.515625 30.90625 
L 53.515625 0 
L 44.484375 0 
L 44.484375 32.71875 
Q 44.484375 40.625 41.703125 44.40625 
Q 38.921875 48.1875 33.109375 48.1875 
Q 26.21875 48.1875 22.15625 43.53125 
Q 18.109375 38.875 18.109375 30.90625 
L 18.109375 0 
L 9.078125 0 
L 9.078125 54.6875 
L 18.109375 54.6875 
L 18.109375 46.1875 
Q 21.1875 51.21875 25.484375 53.609375 
Q 29.78125 56 35.6875 56 
Q 41.65625 56 45.828125 52.96875 
Q 50 49.953125 52 44.1875 
z
" id="DejaVuSans-109"/>
       <path d="M 25.390625 72.90625 
L 33.6875 72.90625 
L 8.296875 -9.28125 
L 0 -9.28125 
z
" id="DejaVuSans-47"/>
       <path d="M 44.28125 53.078125 
L 44.28125 44.578125 
Q 40.484375 46.53125 36.375 47.5 
Q 32.28125 48.484375 27.875 48.484375 
Q 21.1875 48.484375 17.84375 46.4375 
Q 14.5 44.390625 14.5 40.28125 
Q 14.5 37.15625 16.890625 35.375 
Q 19.28125 33.59375 26.515625 31.984375 
L 29.59375 31.296875 
Q 39.15625 29.25 43.1875 25.515625 
Q 47.21875 21.78125 47.21875 15.09375 
Q 47.21875 7.46875 41.1875 3.015625 
Q 35.15625 -1.421875 24.609375 -1.421875 
Q 20.21875 -1.421875 15.453125 -0.5625 
Q 10.6875 0.296875 5.421875 2 
L 5.421875 11.28125 
Q 10.40625 8.6875 15.234375 7.390625 
Q 20.0625 6.109375 24.8125 6.109375 
Q 31.15625 6.109375 34.5625 8.28125 
Q 37.984375 10.453125 37.984375 14.40625 
Q 37.984375 18.0625 35.515625 20.015625 
Q 33.0625 21.96875 24.703125 23.78125 
L 21.578125 24.515625 
Q 13.234375 26.265625 9.515625 29.90625 
Q 5.8125 33.546875 5.8125 39.890625 
Q 5.8125 47.609375 11.28125 51.796875 
Q 16.75 56 26.8125 56 
Q 31.78125 56 36.171875 55.265625 
Q 40.578125 54.546875 44.28125 53.078125 
z
" id="DejaVuSans-115"/>
       <path d="M 30.421875 75.984375 
L 30.421875 -13.1875 
L 9.71875 -13.1875 
L 9.71875 -6.203125 
L 21.390625 -6.203125 
L 21.390625 69 
L 9.71875 69 
L 9.71875 75.984375 
z
" id="DejaVuSans-93"/>
      </defs>
      <use xlink:href="#DejaVuSans-86"/>
      <use x="60.658203" xlink:href="#DejaVuSans-101"/>
      <use x="122.181641" xlink:href="#DejaVuSans-108"/>
      <use x="149.964844" xlink:href="#DejaVuSans-111"/>
      <use x="211.146484" xlink:href="#DejaVuSans-99"/>
      <use x="266.126953" xlink:href="#DejaVuSans-105"/>
      <use x="293.910156" xlink:href="#DejaVuSans-100"/>
      <use x="357.386719" xlink:href="#DejaVuSans-97"/>
      <use x="418.666016" xlink:href="#DejaVuSans-100"/>
      <use x="482.142578" xlink:href="#DejaVuSans-101"/>
      <use x="543.666016" xlink:href="#DejaVuSans-32"/>
      <use x="575.453125" xlink:href="#DejaVuSans-101"/>
      <use x="636.976562" xlink:href="#DejaVuSans-113"/>
      <use x="700.453125" xlink:href="#DejaVuSans-117"/>
      <use x="763.832031" xlink:href="#DejaVuSans-105"/>
      <use x="791.615234" xlink:href="#DejaVuSans-118"/>
      <use x="850.794922" xlink:href="#DejaVuSans-97"/>
      <use x="912.074219" xlink:href="#DejaVuSans-108"/>
      <use x="939.857422" xlink:href="#DejaVuSans-101"/>
      <use x="1001.380859" xlink:href="#DejaVuSans-110"/>
      <use x="1064.759766" xlink:href="#DejaVuSans-116"/>
      <use x="1103.96875" xlink:href="#DejaVuSans-101"/>
      <use x="1165.492188" xlink:href="#DejaVuSans-32"/>
      <use x="1197.279297" xlink:href="#DejaVuSans-91"/>
      <use x="1236.292969" xlink:href="#DejaVuSans-109"/>
      <use x="1333.705078" xlink:href="#DejaVuSans-47"/>
      <use x="1367.396484" xlink:href="#DejaVuSans-115"/>
      <use x="1419.496094" xlink:href="#DejaVuSans-93"/>
     </g>
    </g>
   </g>
   <g id="matplotlib.axis_2">
    <g id="ytick_1">
     <g id="line2d_9">
      <defs>
       <path d="M 0 0 
L -3.5 0 
" id="m53aa0e0547" style="stroke:#000000;stroke-width:0.8;"/>
      </defs>
      <g>
       <use style="stroke:#000000;stroke-width:0.8;" x="90" xlink:href="#m53aa0e0547" y="446.580779"/>
      </g>
     </g>
     <g id="text_10">
      <!-- −2 -->
      <g transform="translate(68.257812 450.379998)scale(0.1 -0.1)">
       <defs>
        <path d="M 10.59375 35.5 
L 73.1875 35.5 
L 73.1875 27.203125 
L 10.59375 27.203125 
z
" id="DejaVuSans-8722"/>
       </defs>
       <use xlink:href="#DejaVuSans-8722"/>
       <use x="83.789062" xlink:href="#DejaVuSans-50"/>
      </g>
     </g>
    </g>
    <g id="ytick_2">
     <g id="line2d_10">
      <g>
       <use style="stroke:#000000;stroke-width:0.8;" x="90" xlink:href="#m53aa0e0547" y="371.276883"/>
      </g>
     </g>
     <g id="text_11">
      <!-- 0 -->
      <g transform="translate(76.6375 375.076102)scale(0.1 -0.1)">
       <use xlink:href="#DejaVuSans-48"/>
      </g>
     </g>
    </g>
    <g id="ytick_3">
     <g id="line2d_11">
      <g>
       <use style="stroke:#000000;stroke-width:0.8;" x="90" xlink:href="#m53aa0e0547" y="295.972987"/>
      </g>
     </g>
     <g id="text_12">
      <!-- 2 -->
      <g transform="translate(76.6375 299.772206)scale(0.1 -0.1)">
       <use xlink:href="#DejaVuSans-50"/>
      </g>
     </g>
    </g>
    <g id="ytick_4">
     <g id="line2d_12">
      <g>
       <use style="stroke:#000000;stroke-width:0.8;" x="90" xlink:href="#m53aa0e0547" y="220.669091"/>
      </g>
     </g>
     <g id="text_13">
      <!-- 4 -->
      <g transform="translate(76.6375 224.46831)scale(0.1 -0.1)">
       <defs>
        <path d="M 37.796875 64.3125 
L 12.890625 25.390625 
L 37.796875 25.390625 
z
M 35.203125 72.90625 
L 47.609375 72.90625 
L 47.609375 25.390625 
L 58.015625 25.390625 
L 58.015625 17.1875 
L 47.609375 17.1875 
L 47.609375 0 
L 37.796875 0 
L 37.796875 17.1875 
L 4.890625 17.1875 
L 4.890625 26.703125 
z
" id="DejaVuSans-52"/>
       </defs>
       <use xlink:href="#DejaVuSans-52"/>
      </g>
     </g>
    </g>
    <g id="ytick_5">
     <g id="line2d_13">
      <g>
       <use style="stroke:#000000;stroke-width:0.8;" x="90" xlink:href="#m53aa0e0547" y="145.365195"/>
      </g>
     </g>
     <g id="text_14">
      <!-- 6 -->
      <g transform="translate(76.6375 149.164414)scale(0.1 -0.1)">
       <defs>
        <path d="M 33.015625 40.375 
Q 26.375 40.375 22.484375 35.828125 
Q 18.609375 31.296875 18.609375 23.390625 
Q 18.609375 15.53125 22.484375 10.953125 
Q 26.375 6.390625 33.015625 6.390625 
Q 39.65625 6.390625 43.53125 10.953125 
Q 47.40625 15.53125 47.40625 23.390625 
Q 47.40625 31.296875 43.53125 35.828125 
Q 39.65625 40.375 33.015625 40.375 
z
M 52.59375 71.296875 
L 52.59375 62.3125 
Q 48.875 64.0625 45.09375 64.984375 
Q 41.3125 65.921875 37.59375 65.921875 
Q 27.828125 65.921875 22.671875 59.328125 
Q 17.53125 52.734375 16.796875 39.40625 
Q 19.671875 43.65625 24.015625 45.921875 
Q 28.375 48.1875 33.59375 48.1875 
Q 44.578125 48.1875 50.953125 41.515625 
Q 57.328125 34.859375 57.328125 23.390625 
Q 57.328125 12.15625 50.6875 5.359375 
Q 44.046875 -1.421875 33.015625 -1.421875 
Q 20.359375 -1.421875 13.671875 8.265625 
Q 6.984375 17.96875 6.984375 36.375 
Q 6.984375 53.65625 15.1875 63.9375 
Q 23.390625 74.21875 37.203125 74.21875 
Q 40.921875 74.21875 44.703125 73.484375 
Q 48.484375 72.75 52.59375 71.296875 
z
" id="DejaVuSans-54"/>
       </defs>
       <use xlink:href="#DejaVuSans-54"/>
      </g>
     </g>
    </g>
    <g id="ytick_6">
     <g id="line2d_14">
      <g>
       <use style="stroke:#000000;stroke-width:0.8;" x="90" xlink:href="#m53aa0e0547" y="70.061299"/>
      </g>
     </g>
     <g id="text_15">
      <!-- 8 -->
      <g transform="translate(76.6375 73.860517)scale(0.1 -0.1)">
       <defs>
        <path d="M 31.78125 34.625 
Q 24.75 34.625 20.71875 30.859375 
Q 16.703125 27.09375 16.703125 20.515625 
Q 16.703125 13.921875 20.71875 10.15625 
Q 24.75 6.390625 31.78125 6.390625 
Q 38.8125 6.390625 42.859375 10.171875 
Q 46.921875 13.96875 46.921875 20.515625 
Q 46.921875 27.09375 42.890625 30.859375 
Q 38.875 34.625 31.78125 34.625 
z
M 21.921875 38.8125 
Q 15.578125 40.375 12.03125 44.71875 
Q 8.5 49.078125 8.5 55.328125 
Q 8.5 64.0625 14.71875 69.140625 
Q 20.953125 74.21875 31.78125 74.21875 
Q 42.671875 74.21875 48.875 69.140625 
Q 55.078125 64.0625 55.078125 55.328125 
Q 55.078125 49.078125 51.53125 44.71875 
Q 48 40.375 41.703125 38.8125 
Q 48.828125 37.15625 52.796875 32.3125 
Q 56.78125 27.484375 56.78125 20.515625 
Q 56.78125 9.90625 50.3125 4.234375 
Q 43.84375 -1.421875 31.78125 -1.421875 
Q 19.734375 -1.421875 13.25 4.234375 
Q 6.78125 9.90625 6.78125 20.515625 
Q 6.78125 27.484375 10.78125 32.3125 
Q 14.796875 37.15625 21.921875 38.8125 
z
M 18.3125 54.390625 
Q 18.3125 48.734375 21.84375 45.5625 
Q 25.390625 42.390625 31.78125 42.390625 
Q 38.140625 42.390625 41.71875 45.5625 
Q 45.3125 48.734375 45.3125 54.390625 
Q 45.3125 60.0625 41.71875 63.234375 
Q 38.140625 66.40625 31.78125 66.40625 
Q 25.390625 66.40625 21.84375 63.234375 
Q 18.3125 60.0625 18.3125 54.390625 
z
" id="DejaVuSans-56"/>
       </defs>
       <use xlink:href="#DejaVuSans-56"/>
      </g>
     </g>
    </g>
    <g id="text_16">
     <!-- Load factor [g] -->
     <g transform="translate(62.178125 323.458438)rotate(-90)scale(0.1 -0.1)">
      <defs>
       <path d="M 9.8125 72.90625 
L 19.671875 72.90625 
L 19.671875 8.296875 
L 55.171875 8.296875 
L 55.171875 0 
L 9.8125 0 
z
" id="DejaVuSans-76"/>
       <path d="M 37.109375 75.984375 
L 37.109375 68.5 
L 28.515625 68.5 
Q 23.6875 68.5 21.796875 66.546875 
Q 19.921875 64.59375 19.921875 59.515625 
L 19.921875 54.6875 
L 34.71875 54.6875 
L 34.71875 47.703125 
L 19.921875 47.703125 
L 19.921875 0 
L 10.890625 0 
L 10.890625 47.703125 
L 2.296875 47.703125 
L 2.296875 54.6875 
L 10.890625 54.6875 
L 10.890625 58.5 
Q 10.890625 67.625 15.140625 71.796875 
Q 19.390625 75.984375 28.609375 75.984375 
z
" id="DejaVuSans-102"/>
       <path d="M 41.109375 46.296875 
Q 39.59375 47.171875 37.8125 47.578125 
Q 36.03125 48 33.890625 48 
Q 26.265625 48 22.1875 43.046875 
Q 18.109375 38.09375 18.109375 28.8125 
L 18.109375 0 
L 9.078125 0 
L 9.078125 54.6875 
L 18.109375 54.6875 
L 18.109375 46.1875 
Q 20.953125 51.171875 25.484375 53.578125 
Q 30.03125 56 36.53125 56 
Q 37.453125 56 38.578125 55.875 
Q 39.703125 55.765625 41.0625 55.515625 
z
" id="DejaVuSans-114"/>
       <path d="M 45.40625 27.984375 
Q 45.40625 37.75 41.375 43.109375 
Q 37.359375 48.484375 30.078125 48.484375 
Q 22.859375 48.484375 18.828125 43.109375 
Q 14.796875 37.75 14.796875 27.984375 
Q 14.796875 18.265625 18.828125 12.890625 
Q 22.859375 7.515625 30.078125 7.515625 
Q 37.359375 7.515625 41.375 12.890625 
Q 45.40625 18.265625 45.40625 27.984375 
z
M 54.390625 6.78125 
Q 54.390625 -7.171875 48.1875 -13.984375 
Q 42 -20.796875 29.203125 -20.796875 
Q 24.46875 -20.796875 20.265625 -20.09375 
Q 16.0625 -19.390625 12.109375 -17.921875 
L 12.109375 -9.1875 
Q 16.0625 -11.328125 19.921875 -12.34375 
Q 23.78125 -13.375 27.78125 -13.375 
Q 36.625 -13.375 41.015625 -8.765625 
Q 45.40625 -4.15625 45.40625 5.171875 
L 45.40625 9.625 
Q 42.625 4.78125 38.28125 2.390625 
Q 33.9375 0 27.875 0 
Q 17.828125 0 11.671875 7.65625 
Q 5.515625 15.328125 5.515625 27.984375 
Q 5.515625 40.671875 11.671875 48.328125 
Q 17.828125 56 27.875 56 
Q 33.9375 56 38.28125 53.609375 
Q 42.625 51.21875 45.40625 46.390625 
L 45.40625 54.6875 
L 54.390625 54.6875 
z
" id="DejaVuSans-103"/>
      </defs>
      <use xlink:href="#DejaVuSans-76"/>
      <use x="53.962891" xlink:href="#DejaVuSans-111"/>
      <use x="115.144531" xlink:href="#DejaVuSans-97"/>
      <use x="176.423828" xlink:href="#DejaVuSans-100"/>
      <use x="239.900391" xlink:href="#DejaVuSans-32"/>
      <use x="271.6875" xlink:href="#DejaVuSans-102"/>
      <use x="306.892578" xlink:href="#DejaVuSans-97"/>
      <use x="368.171875" xlink:href="#DejaVuSans-99"/>
      <use x="423.152344" xlink:href="#DejaVuSans-116"/>
      <use x="462.361328" xlink:href="#DejaVuSans-111"/>
      <use x="523.542969" xlink:href="#DejaVuSans-114"/>
      <use x="564.65625" xlink:href="#DejaVuSans-32"/>
      <use x="596.443359" xlink:href="#DejaVuSans-91"/>
      <use x="635.457031" xlink:href="#DejaVuSans-103"/>
      <use x="698.933594" xlink:href="#DejaVuSans-93"/>
     </g>
    </g>
   </g>
   <g id="line2d_15">
    <path clip-path="url(#p8a8741a0eb)" d="M 115.363636 333.624935 
L 118.834556 332.220652 
L 122.305476 330.81637 
L 125.776395 329.412087 
L 129.247315 328.007805 
L 132.718234 326.603522 
L 136.189154 325.199239 
L 139.660073 323.794957 
L 143.130993 322.390674 
L 146.601913 320.986392 
L 150.072832 319.582109 
L 153.543752 318.177826 
L 157.014671 316.773544 
L 160.485591 315.369261 
L 163.95651 313.964978 
L 167.42743 312.560696 
L 170.89835 311.156413 
L 174.369269 309.752131 
L 177.840189 308.347848 
L 181.311108 306.943565 
L 184.782028 305.539283 
L 188.252947 304.135 
L 191.723867 302.730718 
L 195.194787 301.326435 
L 198.665706 299.922152 
L 202.136626 298.51787 
L 205.607545 297.113587 
L 209.078465 295.709305 
L 212.549384 294.305022 
L 216.020304 292.900739 
L 219.491224 291.496457 
L 222.962143 290.092174 
L 226.433063 288.687891 
L 229.903982 287.283609 
L 233.374902 285.879326 
L 236.845822 284.475044 
L 240.316741 283.070761 
L 243.787661 281.666478 
L 247.25858 280.262196 
L 250.7295 278.857913 
L 254.200419 277.453631 
L 257.671339 276.049348 
L 261.142259 274.645065 
L 264.613178 273.240783 
L 268.084098 271.8365 
L 271.555017 270.432217 
L 275.025937 269.027935 
L 278.496856 267.623652 
L 281.967776 266.21937 
L 285.438696 264.815087 
" style="fill:none;stroke:#000000;stroke-linecap:square;stroke-width:1.5;"/>
   </g>
   <g id="line2d_16">
    <path clip-path="url(#p8a8741a0eb)" d="M 115.363636 333.624935 
L 118.834556 335.029218 
L 122.305476 336.4335 
L 125.776395 337.837783 
L 129.247315 339.242066 
L 132.718234 340.646348 
L 136.189154 342.050631 
L 139.660073 343.454913 
L 143.130993 344.859196 
L 146.601913 346.263479 
L 150.072832 347.667761 
L 153.543752 349.072044 
L 157.014671 350.476326 
L 160.485591 351.880609 
L 163.95651 353.284892 
L 167.42743 354.689174 
L 170.89835 356.093457 
L 174.369269 357.497739 
L 177.840189 358.902022 
L 181.311108 360.306305 
L 184.782028 361.710587 
L 188.252947 363.11487 
L 191.723867 364.519153 
L 195.194787 365.923435 
L 198.665706 367.327718 
L 202.136626 368.732 
L 205.607545 370.136283 
L 209.078465 371.540566 
L 212.549384 372.944848 
L 216.020304 374.349131 
L 219.491224 375.753413 
L 222.962143 377.157696 
L 226.433063 378.561979 
L 229.903982 379.966261 
L 233.374902 381.370544 
L 236.845822 382.774827 
L 240.316741 384.179109 
L 243.787661 385.583392 
L 247.25858 386.987674 
L 250.7295 388.391957 
L 254.200419 389.79624 
L 257.671339 391.200522 
L 261.142259 392.604805 
L 264.613178 394.009087 
L 268.084098 395.41337 
L 271.555017 396.817653 
L 275.025937 398.221935 
L 278.496856 399.626218 
L 281.967776 401.0305 
L 285.438696 402.434783 
" style="fill:none;stroke:#000000;stroke-linecap:square;stroke-width:1.5;"/>
   </g>
   <g id="line2d_17">
    <path clip-path="url(#p8a8741a0eb)" d="M 115.363636 333.624935 
L 123.64564 331.086872 
L 131.927644 328.548809 
L 140.209647 326.010746 
L 148.491651 323.472684 
L 156.773655 320.934621 
L 165.055659 318.396558 
L 173.337662 315.858495 
L 181.619666 313.320432 
L 189.90167 310.782369 
L 198.183673 308.244306 
L 206.465677 305.706243 
L 214.747681 303.16818 
L 223.029685 300.630117 
L 231.311688 298.092055 
L 239.593692 295.553992 
L 247.875696 293.015929 
L 256.157699 290.477866 
L 264.439703 287.939803 
L 272.721707 285.40174 
L 281.003711 282.863677 
L 289.285714 280.325614 
L 297.567718 277.787551 
L 305.849722 275.249489 
L 314.131725 272.711426 
L 322.413729 270.173363 
L 330.695733 267.6353 
L 338.977737 265.097237 
L 347.25974 262.559174 
L 355.541744 260.021111 
L 363.823748 257.483048 
L 372.105751 254.944985 
L 380.387755 252.406923 
L 388.669759 249.86886 
L 396.951763 247.330797 
L 405.233766 244.792734 
L 413.51577 242.254671 
L 421.797774 239.716608 
L 430.079777 237.178545 
L 438.361781 234.640482 
L 446.643785 232.102419 
L 454.925788 229.564357 
L 463.207792 227.026294 
L 471.489796 224.488231 
L 479.7718 221.950168 
L 488.053803 219.412105 
L 496.335807 216.874042 
L 504.617811 214.335979 
L 512.899814 211.797916 
L 521.181818 209.259853 
" style="fill:none;stroke:#000000;stroke-dasharray:1.5,2.475;stroke-dashoffset:0;stroke-width:1.5;"/>
   </g>
   <g id="line2d_18">
    <path clip-path="url(#p8a8741a0eb)" d="M 115.363636 333.624935 
L 123.64564 336.162998 
L 131.927644 338.701061 
L 140.209647 341.239124 
L 148.491651 343.777187 
L 156.773655 346.31525 
L 165.055659 348.853312 
L 173.337662 351.391375 
L 181.619666 353.929438 
L 189.90167 356.467501 
L 198.183673 359.005564 
L 206.465677 361.543627 
L 214.747681 364.08169 
L 223.029685 366.619753 
L 231.311688 369.157816 
L 239.593692 371.695878 
L 247.875696 374.233941 
L 256.157699 376.772004 
L 264.439703 379.310067 
L 272.721707 381.84813 
L 281.003711 384.386193 
L 289.285714 386.924256 
L 297.567718 389.462319 
L 305.849722 392.000382 
L 314.131725 394.538444 
L 322.413729 397.076507 
L 330.695733 399.61457 
L 338.977737 402.152633 
L 347.25974 404.690696 
L 355.541744 407.228759 
L 363.823748 409.766822 
L 372.105751 412.304885 
L 380.387755 414.842948 
L 388.669759 417.38101 
L 396.951763 419.919073 
L 405.233766 422.457136 
L 413.51577 424.995199 
L 421.797774 427.533262 
L 430.079777 430.071325 
L 438.361781 432.609388 
L 446.643785 435.147451 
L 454.925788 437.685514 
L 463.207792 440.223576 
L 471.489796 442.761639 
L 479.7718 445.299702 
L 488.053803 447.837765 
L 496.335807 450.375828 
L 504.617811 452.913891 
L 512.899814 455.451954 
L 521.181818 457.990017 
" style="fill:none;stroke:#000000;stroke-dasharray:1.5,2.475;stroke-dashoffset:0;stroke-width:1.5;"/>
   </g>
   <g id="line2d_19">
    <path clip-path="url(#p8a8741a0eb)" d="M 115.363636 333.624935 
L 125.716141 332.038646 
L 136.068646 330.452356 
L 146.42115 328.866067 
L 156.773655 327.279778 
L 167.12616 325.693489 
L 177.478664 324.107199 
L 187.831169 322.52091 
L 198.183673 320.934621 
L 208.536178 319.348331 
L 218.888683 317.762042 
L 229.241187 316.175753 
L 239.593692 314.589463 
L 249.946197 313.003174 
L 260.298701 311.416885 
L 270.651206 309.830595 
L 281.003711 308.244306 
L 291.356215 306.658017 
L 301.70872 305.071728 
L 312.061224 303.485438 
L 322.413729 301.899149 
L 332.766234 300.31286 
L 343.118738 298.72657 
L 353.471243 297.140281 
L 363.823748 295.553992 
L 374.176252 293.967702 
L 384.528757 292.381413 
L 394.881262 290.795124 
L 405.233766 289.208834 
L 415.586271 287.622545 
L 425.938776 286.036256 
L 436.29128 284.449967 
L 446.643785 282.863677 
L 456.996289 281.277388 
L 467.348794 279.691099 
L 477.701299 278.104809 
L 488.053803 276.51852 
L 498.406308 274.932231 
L 508.758813 273.345941 
L 519.111317 271.759652 
L 529.463822 270.173363 
L 539.816327 268.587073 
L 550.168831 267.000784 
L 560.521336 265.414495 
L 570.87384 263.828206 
L 581.226345 262.241916 
L 591.57885 260.655627 
L 601.931354 259.069338 
L 612.283859 257.483048 
L 622.636364 255.896759 
" style="fill:none;stroke:#000000;stroke-dasharray:1.5,2.475;stroke-dashoffset:0;stroke-width:1.5;"/>
   </g>
   <g id="line2d_20">
    <path clip-path="url(#p8a8741a0eb)" d="M 115.363636 333.624935 
L 125.716141 335.211224 
L 136.068646 336.797514 
L 146.42115 338.383803 
L 156.773655 339.970092 
L 167.12616 341.556382 
L 177.478664 343.142671 
L 187.831169 344.72896 
L 198.183673 346.31525 
L 208.536178 347.901539 
L 218.888683 349.487828 
L 229.241187 351.074117 
L 239.593692 352.660407 
L 249.946197 354.246696 
L 260.298701 355.832985 
L 270.651206 357.419275 
L 281.003711 359.005564 
L 291.356215 360.591853 
L 301.70872 362.178143 
L 312.061224 363.764432 
L 322.413729 365.350721 
L 332.766234 366.937011 
L 343.118738 368.5233 
L 353.471243 370.109589 
L 363.823748 371.695878 
L 374.176252 373.282168 
L 384.528757 374.868457 
L 394.881262 376.454746 
L 405.233766 378.041036 
L 415.586271 379.627325 
L 425.938776 381.213614 
L 436.29128 382.799904 
L 446.643785 384.386193 
L 456.996289 385.972482 
L 467.348794 387.558771 
L 477.701299 389.145061 
L 488.053803 390.73135 
L 498.406308 392.317639 
L 508.758813 393.903929 
L 519.111317 395.490218 
L 529.463822 397.076507 
L 539.816327 398.662797 
L 550.168831 400.249086 
L 560.521336 401.835375 
L 570.87384 403.421665 
L 581.226345 405.007954 
L 591.57885 406.594243 
L 601.931354 408.180532 
L 612.283859 409.766822 
L 622.636364 411.353111 
" style="fill:none;stroke:#000000;stroke-dasharray:1.5,2.475;stroke-dashoffset:0;stroke-width:1.5;"/>
   </g>
   <g id="line2d_21">
    <path clip-path="url(#p8a8741a0eb)" d="M 285.438696 264.815087 
L 521.181818 209.259853 
" style="fill:none;stroke:#000000;stroke-linecap:square;stroke-width:1.5;"/>
   </g>
   <g id="line2d_22">
    <path clip-path="url(#p8a8741a0eb)" d="M 285.438696 402.434783 
L 521.181818 457.990017 
" style="fill:none;stroke:#000000;stroke-linecap:square;stroke-width:1.5;"/>
   </g>
   <g id="line2d_23">
    <path clip-path="url(#p8a8741a0eb)" d="M 521.181818 209.259853 
L 622.636364 255.896759 
" style="fill:none;stroke:#000000;stroke-linecap:square;stroke-width:1.5;"/>
   </g>
   <g id="line2d_24">
    <path clip-path="url(#p8a8741a0eb)" d="M 521.181818 457.990017 
L 622.636364 411.353111 
" style="fill:none;stroke:#000000;stroke-linecap:square;stroke-width:1.5;"/>
   </g>
   <g id="line2d_25">
    <path clip-path="url(#p8a8741a0eb)" d="M 622.636364 255.896759 
L 622.636364 411.353111 
" style="fill:none;stroke:#000000;stroke-linecap:square;stroke-width:1.5;"/>
   </g>
   <g id="line2d_26">
    <path clip-path="url(#p8a8741a0eb)" d="M 216.507016 333.624935 
L 217.944163 332.54734 
L 219.38131 331.454541 
L 220.818457 330.346538 
L 222.255604 329.223332 
L 223.692751 328.084923 
L 225.129898 326.93131 
L 226.567045 325.762493 
L 228.004192 324.578473 
L 229.441339 323.379249 
L 230.878486 322.164822 
L 232.315633 320.935191 
L 233.75278 319.690357 
L 235.189927 318.430319 
L 236.627074 317.155077 
L 238.064221 315.864632 
L 239.501368 314.558984 
L 240.938515 313.238132 
L 242.375662 311.902076 
L 243.812809 310.550817 
L 245.249956 309.184354 
L 246.687103 307.802688 
L 248.12425 306.405818 
L 249.561397 304.993745 
L 250.998544 303.566468 
L 252.435691 302.123987 
L 253.872838 300.666303 
L 255.309985 299.193416 
L 256.747132 297.705325 
L 258.184279 296.20203 
L 259.621426 294.683532 
L 261.058573 293.14983 
L 262.49572 291.600925 
L 263.932867 290.036816 
L 265.370014 288.457504 
L 266.807161 286.862988 
L 268.244308 285.253268 
L 269.681455 283.628345 
L 271.118601 281.988219 
L 272.555748 280.332889 
L 273.992895 278.662355 
L 275.430042 276.976618 
L 276.867189 275.275677 
L 278.304336 273.559533 
L 279.741483 271.828185 
L 281.17863 270.081633 
L 282.615777 268.319879 
L 284.052924 266.54292 
L 285.490071 264.750758 
L 286.927218 262.943392 
L 288.364365 261.120823 
L 289.801512 259.283051 
L 291.238659 257.430074 
L 292.675806 255.561895 
L 294.112953 253.678511 
L 295.5501 251.779925 
L 296.987247 249.866134 
L 298.424394 247.93714 
L 299.861541 245.992943 
L 301.298688 244.033542 
L 302.735835 242.058937 
L 304.172982 240.069129 
L 305.610129 238.064117 
L 307.047276 236.043902 
L 308.484423 234.008483 
L 309.92157 231.957861 
L 311.358717 229.892035 
L 312.795864 227.811006 
L 314.233011 225.714773 
L 315.670158 223.603336 
L 317.107305 221.476696 
L 318.544452 219.334853 
L 319.981599 217.177806 
L 321.418746 215.005555 
L 322.855893 212.818101 
L 324.29304 210.615443 
L 325.730187 208.397582 
L 327.167334 206.164517 
L 328.604481 203.916248 
L 330.041628 201.652776 
L 331.478775 199.374101 
L 332.915922 197.080222 
L 334.353069 194.771139 
L 335.790216 192.446853 
L 337.227363 190.107363 
L 338.66451 187.75267 
L 340.101657 185.382773 
L 341.538804 182.997673 
L 342.975951 180.597369 
L 344.413098 178.181862 
L 345.850245 175.751151 
L 347.287392 173.305236 
L 348.724539 170.844118 
L 350.161686 168.367797 
L 351.598832 165.876272 
L 353.035979 163.369543 
L 354.473126 160.847611 
L 355.910273 158.310475 
L 357.34742 155.758135 
L 358.784567 153.190593 
L 360.221714 150.607846 
L 361.658861 148.009896 
L 363.096008 145.396743 
L 364.533155 142.768386 
L 365.970302 140.124825 
L 367.407449 137.466061 
L 368.844596 134.792093 
L 370.281743 132.102922 
L 371.71889 129.398547 
L 373.156037 126.678969 
L 374.593184 123.944187 
L 376.030331 121.194201 
L 377.467478 118.429012 
L 378.904625 115.64862 
L 380.341772 112.853024 
L 381.778919 110.042224 
L 383.216066 107.216221 
L 384.653213 104.375014 
L 386.09036 101.518604 
L 387.527507 98.64699 
L 388.964654 95.760173 
L 390.401801 92.858152 
L 391.838948 89.940928 
" style="fill:none;stroke:#000000;stroke-linecap:square;stroke-width:1.5;"/>
   </g>
   <g id="line2d_27">
    <path clip-path="url(#p8a8741a0eb)" d="M 242.733198 408.928831 
L 244.170345 409.7833 
L 245.607492 410.647356 
L 247.044639 411.520999 
L 248.481786 412.404229 
L 249.918933 413.297047 
L 251.35608 414.199451 
L 252.793227 415.111443 
L 254.230374 416.033021 
L 255.667521 416.964187 
L 257.104668 417.90494 
L 258.541815 418.85528 
L 259.978962 419.815208 
L 261.416109 420.784722 
L 262.853256 421.763823 
L 264.290403 422.752512 
L 265.72755 423.750788 
L 267.164697 424.758651 
L 268.601844 425.776101 
L 270.038991 426.803138 
L 271.476138 427.839762 
L 272.913285 428.885974 
L 274.350432 429.941772 
L 275.787579 431.007158 
L 277.224726 432.08213 
L 278.661873 433.16669 
L 280.09902 434.260837 
L 281.536167 435.364572 
L 282.973314 436.477893 
L 284.410461 437.600801 
L 285.847608 438.733297 
L 287.284755 439.875379 
L 288.721902 441.027049 
L 290.159049 442.188306 
L 291.596196 443.35915 
L 293.033343 444.539581 
L 294.470489 445.7296 
L 295.907636 446.929205 
L 297.344783 448.138398 
L 298.78193 449.357177 
L 300.219077 450.585544 
L 301.656224 451.823498 
L 303.093371 453.071039 
L 304.530518 454.328167 
L 305.967665 455.594883 
L 307.404812 456.871185 
L 308.841959 458.157075 
L 310.279106 459.452551 
L 311.716253 460.757615 
L 313.1534 462.072266 
L 314.590547 463.396504 
L 316.027694 464.73033 
L 317.464841 466.073742 
L 318.901988 467.426741 
L 320.339135 468.789328 
L 321.776282 470.161502 
L 323.213429 471.543263 
L 324.650576 472.934611 
L 326.087723 474.335546 
L 327.52487 475.746068 
L 328.962017 477.166177 
L 330.399164 478.595874 
L 331.836311 480.035157 
L 333.273458 481.484028 
L 334.710605 482.942486 
" style="fill:none;stroke:#000000;stroke-linecap:square;stroke-width:1.5;"/>
   </g>
   <g id="line2d_28">
    <path clip-path="url(#p8a8741a0eb)" d="M 115.363636 371.276883 
L 116.800783 371.269281 
L 118.23793 371.246476 
L 119.675077 371.208467 
L 121.112224 371.155255 
L 122.549371 371.086839 
L 123.986518 371.003219 
L 125.423665 370.904396 
L 126.860812 370.79037 
L 128.297959 370.661139 
L 129.735106 370.516706 
L 131.172253 370.357069 
L 132.6094 370.182228 
L 134.046547 369.992183 
L 135.483694 369.786936 
L 136.920841 369.566484 
L 138.357988 369.330829 
L 139.795135 369.079971 
L 141.232282 368.813909 
L 142.669429 368.532643 
L 144.106576 368.236174 
L 145.543723 367.924501 
L 146.98087 367.597625 
L 148.418017 367.255545 
L 149.855164 366.898262 
L 151.292311 366.525775 
L 152.729458 366.138085 
L 154.166605 365.735191 
L 155.603752 365.317093 
L 157.040899 364.883792 
L 158.478046 364.435287 
L 159.915193 363.971579 
L 161.35234 363.492667 
L 162.789487 362.998552 
L 164.226634 362.489233 
L 165.663781 361.964711 
L 167.100928 361.424985 
L 168.538075 360.870056 
L 169.975222 360.299923 
L 171.412369 359.714586 
L 172.849516 359.114046 
L 174.286663 358.498303 
L 175.72381 357.867355 
L 177.160957 357.221205 
L 178.598104 356.55985 
L 180.035251 355.883293 
L 181.472398 355.191531 
L 182.909545 354.484566 
L 184.346692 353.762398 
L 185.783839 353.025026 
L 187.220985 352.27245 
L 188.658132 351.504671 
L 190.095279 350.721689 
L 191.532426 349.923503 
L 192.969573 349.110113 
L 194.40672 348.28152 
L 195.843867 347.437723 
L 197.281014 346.578722 
L 198.718161 345.704518 
L 200.155308 344.815111 
L 201.592455 343.9105 
L 203.029602 342.990685 
L 204.466749 342.055667 
L 205.903896 341.105446 
L 207.341043 340.140021 
L 208.77819 339.159392 
L 210.215337 338.16356 
L 211.652484 337.152524 
L 213.089631 336.126284 
L 214.526778 335.084841 
L 215.963925 334.028195 
" style="fill:none;stroke:#000000;stroke-dasharray:1.5,2.475;stroke-dashoffset:0;stroke-width:1.5;"/>
   </g>
   <g id="line2d_29">
    <path clip-path="url(#p8a8741a0eb)" d="M 115.363636 371.276883 
L 116.800783 371.281677 
L 118.23793 371.296057 
L 119.675077 371.320025 
L 121.112224 371.35358 
L 122.549371 371.396722 
L 123.986518 371.449451 
L 125.423665 371.511768 
L 126.860812 371.583671 
L 128.297959 371.665162 
L 129.735106 371.75624 
L 131.172253 371.856904 
L 132.6094 371.967156 
L 134.046547 372.086995 
L 135.483694 372.216422 
L 136.920841 372.355435 
L 138.357988 372.504035 
L 139.795135 372.662223 
L 141.232282 372.829998 
L 142.669429 373.00736 
L 144.106576 373.194309 
L 145.543723 373.390845 
L 146.98087 373.596968 
L 148.418017 373.812678 
L 149.855164 374.037976 
L 151.292311 374.272861 
L 152.729458 374.517332 
L 154.166605 374.771391 
L 155.603752 375.035037 
L 157.040899 375.30827 
L 158.478046 375.591091 
L 159.915193 375.883498 
L 161.35234 376.185492 
L 162.789487 376.497074 
L 164.226634 376.818243 
L 165.663781 377.148999 
L 167.100928 377.489342 
L 168.538075 377.839272 
L 169.975222 378.198789 
L 171.412369 378.567894 
L 172.849516 378.946585 
L 174.286663 379.334864 
L 175.72381 379.73273 
L 177.160957 380.140183 
L 178.598104 380.557223 
L 180.035251 380.98385 
L 181.472398 381.420064 
L 182.909545 381.865866 
L 184.346692 382.321254 
L 185.783839 382.78623 
L 187.220985 383.260793 
L 188.658132 383.744943 
L 190.095279 384.23868 
L 191.532426 384.742004 
L 192.969573 385.254915 
L 194.40672 385.777414 
L 195.843867 386.309499 
L 197.281014 386.851172 
L 198.718161 387.402432 
L 200.155308 387.963279 
L 201.592455 388.533713 
L 203.029602 389.113734 
L 204.466749 389.703343 
L 205.903896 390.302538 
L 207.341043 390.911321 
L 208.77819 391.52969 
L 210.215337 392.157647 
L 211.652484 392.795191 
L 213.089631 393.442322 
L 214.526778 394.099041 
L 215.963925 394.765346 
L 217.401072 395.441238 
L 218.838219 396.126718 
L 220.275366 396.821785 
L 221.712513 397.526439 
L 223.14966 398.24068 
L 224.586807 398.964508 
L 226.023954 399.697923 
L 227.461101 400.440926 
L 228.898248 401.193515 
L 230.335395 401.955692 
L 231.772542 402.727456 
L 233.209689 403.508806 
L 234.646836 404.299744 
L 236.083983 405.10027 
L 237.52113 405.910382 
L 238.958277 406.730081 
L 240.395424 407.559368 
L 241.832571 408.398242 
" style="fill:none;stroke:#000000;stroke-dasharray:1.5,2.475;stroke-dashoffset:0;stroke-width:1.5;"/>
   </g>
   <g id="line2d_30">
    <path clip-path="url(#p8a8741a0eb)" d="M 392.35619 88.887273 
L 622.299707 88.887273 
L 622.299707 88.887273 
" style="fill:none;stroke:#000000;stroke-linecap:square;stroke-width:1.5;"/>
   </g>
   <g id="line2d_31">
    <path clip-path="url(#p8a8741a0eb)" d="M 335.974189 484.232727 
L 519.929002 484.232727 
L 519.929002 484.232727 
" style="fill:none;stroke:#000000;stroke-linecap:square;stroke-width:1.5;"/>
   </g>
   <g id="line2d_32">
    <path clip-path="url(#p8a8741a0eb)" d="M 622.636364 408.928831 
L 622.636364 89.263792 
L 622.636364 89.263792 
" style="fill:none;stroke:#000000;stroke-linecap:square;stroke-width:1.5;"/>
   </g>
   <g id="line2d_33">
    <path clip-path="url(#p8a8741a0eb)" d="M 521.181818 484.232727 
L 522.618965 483.166015 
L 524.056112 482.099304 
L 525.493259 481.032592 
L 526.930406 479.96588 
L 528.367553 478.899168 
L 529.8047 477.832456 
L 531.241847 476.765744 
L 532.678994 475.699032 
L 534.116141 474.632321 
L 535.553288 473.565609 
L 536.990435 472.498897 
L 538.427582 471.432185 
L 539.864729 470.365473 
L 541.301876 469.298761 
L 542.739023 468.232049 
L 544.17617 467.165337 
L 545.613317 466.098626 
L 547.050464 465.031914 
L 548.487611 463.965202 
L 549.924758 462.89849 
L 551.361905 461.831778 
L 552.799052 460.765066 
L 554.236199 459.698354 
L 555.673346 458.631643 
L 557.110493 457.564931 
L 558.54764 456.498219 
L 559.984787 455.431507 
L 561.421934 454.364795 
L 562.859081 453.298083 
L 564.296228 452.231371 
L 565.733375 451.16466 
L 567.170522 450.097948 
L 568.607669 449.031236 
L 570.044816 447.964524 
L 571.481963 446.897812 
L 572.91911 445.8311 
L 574.356257 444.764388 
L 575.793404 443.697677 
L 577.23055 442.630965 
L 578.667697 441.564253 
L 580.104844 440.497541 
L 581.541991 439.430829 
L 582.979138 438.364117 
L 584.416285 437.297405 
L 585.853432 436.230694 
L 587.290579 435.163982 
L 588.727726 434.09727 
L 590.164873 433.030558 
L 591.60202 431.963846 
L 593.039167 430.897134 
L 594.476314 429.830422 
L 595.913461 428.76371 
L 597.350608 427.696999 
L 598.787755 426.630287 
L 600.224902 425.563575 
L 601.662049 424.496863 
L 603.099196 423.430151 
L 604.536343 422.363439 
L 605.97349 421.296727 
L 607.410637 420.230016 
L 608.847784 419.163304 
L 610.284931 418.096592 
L 611.722078 417.02988 
L 613.159225 415.963168 
L 614.596372 414.896456 
L 616.033519 413.829744 
L 617.470666 412.763033 
L 618.907813 411.696321 
L 620.34496 410.629609 
L 621.782107 409.562897 
" style="fill:none;stroke:#000000;stroke-linecap:square;stroke-width:1.5;"/>
   </g>
   <g id="line2d_34">
    <path clip-path="url(#p8a8741a0eb)" d="M 115.363636 371.276883 
L 622.389092 371.276883 
L 622.389092 371.276883 
" style="fill:none;stroke:#0000ff;stroke-linecap:square;stroke-width:1.5;"/>
   </g>
   <g id="line2d_35">
    <path clip-path="url(#p8a8741a0eb)" d="M 216.507016 371.276883 
L 216.507016 370.900364 
L 216.507016 370.523844 
L 216.507016 370.147325 
L 216.507016 369.770805 
L 216.507016 369.394286 
L 216.507016 369.017766 
L 216.507016 368.641247 
L 216.507016 368.264727 
L 216.507016 367.888208 
L 216.507016 367.511688 
L 216.507016 367.135169 
L 216.507016 366.758649 
L 216.507016 366.38213 
L 216.507016 366.00561 
L 216.507016 365.629091 
L 216.507016 365.252571 
L 216.507016 364.876052 
L 216.507016 364.499532 
L 216.507016 364.123013 
L 216.507016 363.746494 
L 216.507016 363.369974 
L 216.507016 362.993455 
L 216.507016 362.616935 
L 216.507016 362.240416 
L 216.507016 361.863896 
L 216.507016 361.487377 
L 216.507016 361.110857 
L 216.507016 360.734338 
L 216.507016 360.357818 
L 216.507016 359.981299 
L 216.507016 359.604779 
L 216.507016 359.22826 
L 216.507016 358.85174 
L 216.507016 358.475221 
L 216.507016 358.098701 
L 216.507016 357.722182 
L 216.507016 357.345662 
L 216.507016 356.969143 
L 216.507016 356.592623 
L 216.507016 356.216104 
L 216.507016 355.839584 
L 216.507016 355.463065 
L 216.507016 355.086545 
L 216.507016 354.710026 
L 216.507016 354.333506 
L 216.507016 353.956987 
L 216.507016 353.580468 
L 216.507016 353.203948 
L 216.507016 352.827429 
L 216.507016 352.450909 
L 216.507016 352.07439 
L 216.507016 351.69787 
L 216.507016 351.321351 
L 216.507016 350.944831 
L 216.507016 350.568312 
L 216.507016 350.191792 
L 216.507016 349.815273 
L 216.507016 349.438753 
L 216.507016 349.062234 
L 216.507016 348.685714 
L 216.507016 348.309195 
L 216.507016 347.932675 
L 216.507016 347.556156 
L 216.507016 347.179636 
L 216.507016 346.803117 
L 216.507016 346.426597 
L 216.507016 346.050078 
L 216.507016 345.673558 
L 216.507016 345.297039 
L 216.507016 344.920519 
L 216.507016 344.544 
L 216.507016 344.167481 
L 216.507016 343.790961 
L 216.507016 343.414442 
L 216.507016 343.037922 
L 216.507016 342.661403 
L 216.507016 342.284883 
L 216.507016 341.908364 
L 216.507016 341.531844 
L 216.507016 341.155325 
L 216.507016 340.778805 
L 216.507016 340.402286 
L 216.507016 340.025766 
L 216.507016 339.649247 
L 216.507016 339.272727 
L 216.507016 338.896208 
L 216.507016 338.519688 
L 216.507016 338.143169 
L 216.507016 337.766649 
L 216.507016 337.39013 
L 216.507016 337.01361 
L 216.507016 336.637091 
L 216.507016 336.260571 
L 216.507016 335.884052 
L 216.507016 335.507532 
L 216.507016 335.131013 
L 216.507016 334.754494 
L 216.507016 334.377974 
L 216.507016 334.001455 
" style="fill:none;stroke:#000000;stroke-linecap:square;stroke-width:1.5;"/>
   </g>
   <g id="line2d_36">
    <path clip-path="url(#p8a8741a0eb)" d="M 242.733198 371.276883 
L 242.733198 371.653403 
L 242.733198 372.029922 
L 242.733198 372.406442 
L 242.733198 372.782961 
L 242.733198 373.159481 
L 242.733198 373.536 
L 242.733198 373.912519 
L 242.733198 374.289039 
L 242.733198 374.665558 
L 242.733198 375.042078 
L 242.733198 375.418597 
L 242.733198 375.795117 
L 242.733198 376.171636 
L 242.733198 376.548156 
L 242.733198 376.924675 
L 242.733198 377.301195 
L 242.733198 377.677714 
L 242.733198 378.054234 
L 242.733198 378.430753 
L 242.733198 378.807273 
L 242.733198 379.183792 
L 242.733198 379.560312 
L 242.733198 379.936831 
L 242.733198 380.313351 
L 242.733198 380.68987 
L 242.733198 381.06639 
L 242.733198 381.442909 
L 242.733198 381.819429 
L 242.733198 382.195948 
L 242.733198 382.572468 
L 242.733198 382.948987 
L 242.733198 383.325506 
L 242.733198 383.702026 
L 242.733198 384.078545 
L 242.733198 384.455065 
L 242.733198 384.831584 
L 242.733198 385.208104 
L 242.733198 385.584623 
L 242.733198 385.961143 
L 242.733198 386.337662 
L 242.733198 386.714182 
L 242.733198 387.090701 
L 242.733198 387.467221 
L 242.733198 387.84374 
L 242.733198 388.22026 
L 242.733198 388.596779 
L 242.733198 388.973299 
L 242.733198 389.349818 
L 242.733198 389.726338 
L 242.733198 390.102857 
L 242.733198 390.479377 
L 242.733198 390.855896 
L 242.733198 391.232416 
L 242.733198 391.608935 
L 242.733198 391.985455 
L 242.733198 392.361974 
L 242.733198 392.738494 
L 242.733198 393.115013 
L 242.733198 393.491532 
L 242.733198 393.868052 
L 242.733198 394.244571 
L 242.733198 394.621091 
L 242.733198 394.99761 
L 242.733198 395.37413 
L 242.733198 395.750649 
L 242.733198 396.127169 
L 242.733198 396.503688 
L 242.733198 396.880208 
L 242.733198 397.256727 
L 242.733198 397.633247 
L 242.733198 398.009766 
L 242.733198 398.386286 
L 242.733198 398.762805 
L 242.733198 399.139325 
L 242.733198 399.515844 
L 242.733198 399.892364 
L 242.733198 400.268883 
L 242.733198 400.645403 
L 242.733198 401.021922 
L 242.733198 401.398442 
L 242.733198 401.774961 
L 242.733198 402.151481 
L 242.733198 402.528 
L 242.733198 402.904519 
L 242.733198 403.281039 
L 242.733198 403.657558 
L 242.733198 404.034078 
L 242.733198 404.410597 
L 242.733198 404.787117 
L 242.733198 405.163636 
L 242.733198 405.540156 
L 242.733198 405.916675 
L 242.733198 406.293195 
L 242.733198 406.669714 
L 242.733198 407.046234 
L 242.733198 407.422753 
L 242.733198 407.799273 
L 242.733198 408.175792 
L 242.733198 408.552312 
" style="fill:none;stroke:#000000;stroke-linecap:square;stroke-width:1.5;"/>
   </g>
   <g id="patch_3">
    <path d="M 90 504 
L 90 69.12 
" style="fill:none;stroke:#000000;stroke-linecap:square;stroke-linejoin:miter;stroke-width:0.8;"/>
   </g>
   <g id="patch_4">
    <path d="M 648 504 
L 648 69.12 
" style="fill:none;stroke:#000000;stroke-linecap:square;stroke-linejoin:miter;stroke-width:0.8;"/>
   </g>
   <g id="patch_5">
    <path d="M 90 504 
L 648 504 
" style="fill:none;stroke:#000000;stroke-linecap:square;stroke-linejoin:miter;stroke-width:0.8;"/>
   </g>
   <g id="patch_6">
    <path d="M 90 69.12 
L 648 69.12 
" style="fill:none;stroke:#000000;stroke-linecap:square;stroke-linejoin:miter;stroke-width:0.8;"/>
   </g>
   <g id="text_17">
    <!-- n = 0 -->
    <g transform="translate(100.992167 349.903267)scale(0.09 -0.09)">
     <defs>
      <path d="M 10.59375 45.40625 
L 73.1875 45.40625 
L 73.1875 37.203125 
L 10.59375 37.203125 
z
M 10.59375 25.484375 
L 73.1875 25.484375 
L 73.1875 17.1875 
L 10.59375 17.1875 
z
" id="DejaVuSans-61"/>
     </defs>
     <use xlink:href="#DejaVuSans-110"/>
     <use x="63.378906" xlink:href="#DejaVuSans-32"/>
     <use x="95.166016" xlink:href="#DejaVuSans-61"/>
     <use x="178.955078" xlink:href="#DejaVuSans-32"/>
     <use x="210.742188" xlink:href="#DejaVuSans-48"/>
    </g>
    <!-- V = 0.0 [m/s] -->
    <g transform="translate(100.992167 359.981299)scale(0.09 -0.09)">
     <defs>
      <path d="M 10.6875 12.40625 
L 21 12.40625 
L 21 0 
L 10.6875 0 
z
" id="DejaVuSans-46"/>
     </defs>
     <use xlink:href="#DejaVuSans-86"/>
     <use x="68.408203" xlink:href="#DejaVuSans-32"/>
     <use x="100.195312" xlink:href="#DejaVuSans-61"/>
     <use x="183.984375" xlink:href="#DejaVuSans-32"/>
     <use x="215.771484" xlink:href="#DejaVuSans-48"/>
     <use x="279.394531" xlink:href="#DejaVuSans-46"/>
     <use x="311.181641" xlink:href="#DejaVuSans-48"/>
     <use x="374.804688" xlink:href="#DejaVuSans-32"/>
     <use x="406.591797" xlink:href="#DejaVuSans-91"/>
     <use x="445.605469" xlink:href="#DejaVuSans-109"/>
     <use x="543.017578" xlink:href="#DejaVuSans-47"/>
     <use x="576.708984" xlink:href="#DejaVuSans-115"/>
     <use x="628.808594" xlink:href="#DejaVuSans-93"/>
    </g>
   </g>
   <g id="text_18">
    <!-- P1: n = 7.5 -->
    <g transform="translate(390.97666 102.454065)scale(0.09 -0.09)">
     <defs>
      <path d="M 19.671875 64.796875 
L 19.671875 37.40625 
L 32.078125 37.40625 
Q 38.96875 37.40625 42.71875 40.96875 
Q 46.484375 44.53125 46.484375 51.125 
Q 46.484375 57.671875 42.71875 61.234375 
Q 38.96875 64.796875 32.078125 64.796875 
z
M 9.8125 72.90625 
L 32.078125 72.90625 
Q 44.34375 72.90625 50.609375 67.359375 
Q 56.890625 61.8125 56.890625 51.125 
Q 56.890625 40.328125 50.609375 34.8125 
Q 44.34375 29.296875 32.078125 29.296875 
L 19.671875 29.296875 
L 19.671875 0 
L 9.8125 0 
z
" id="DejaVuSans-80"/>
      <path d="M 11.71875 12.40625 
L 22.015625 12.40625 
L 22.015625 0 
L 11.71875 0 
z
M 11.71875 51.703125 
L 22.015625 51.703125 
L 22.015625 39.3125 
L 11.71875 39.3125 
z
" id="DejaVuSans-58"/>
     </defs>
     <use xlink:href="#DejaVuSans-80"/>
     <use x="60.302734" xlink:href="#DejaVuSans-49"/>
     <use x="123.925781" xlink:href="#DejaVuSans-58"/>
     <use x="157.617188" xlink:href="#DejaVuSans-32"/>
     <use x="189.404297" xlink:href="#DejaVuSans-110"/>
     <use x="252.783203" xlink:href="#DejaVuSans-32"/>
     <use x="284.570312" xlink:href="#DejaVuSans-61"/>
     <use x="368.359375" xlink:href="#DejaVuSans-32"/>
     <use x="400.146484" xlink:href="#DejaVuSans-55"/>
     <use x="463.769531" xlink:href="#DejaVuSans-46"/>
     <use x="495.556641" xlink:href="#DejaVuSans-53"/>
    </g>
    <!-- V = 96.36 [m/s] -->
    <g transform="translate(390.97666 112.532096)scale(0.09 -0.09)">
     <defs>
      <path d="M 10.984375 1.515625 
L 10.984375 10.5 
Q 14.703125 8.734375 18.5 7.8125 
Q 22.3125 6.890625 25.984375 6.890625 
Q 35.75 6.890625 40.890625 13.453125 
Q 46.046875 20.015625 46.78125 33.40625 
Q 43.953125 29.203125 39.59375 26.953125 
Q 35.25 24.703125 29.984375 24.703125 
Q 19.046875 24.703125 12.671875 31.3125 
Q 6.296875 37.9375 6.296875 49.421875 
Q 6.296875 60.640625 12.9375 67.421875 
Q 19.578125 74.21875 30.609375 74.21875 
Q 43.265625 74.21875 49.921875 64.515625 
Q 56.59375 54.828125 56.59375 36.375 
Q 56.59375 19.140625 48.40625 8.859375 
Q 40.234375 -1.421875 26.421875 -1.421875 
Q 22.703125 -1.421875 18.890625 -0.6875 
Q 15.09375 0.046875 10.984375 1.515625 
z
M 30.609375 32.421875 
Q 37.25 32.421875 41.125 36.953125 
Q 45.015625 41.5 45.015625 49.421875 
Q 45.015625 57.28125 41.125 61.84375 
Q 37.25 66.40625 30.609375 66.40625 
Q 23.96875 66.40625 20.09375 61.84375 
Q 16.21875 57.28125 16.21875 49.421875 
Q 16.21875 41.5 20.09375 36.953125 
Q 23.96875 32.421875 30.609375 32.421875 
z
" id="DejaVuSans-57"/>
      <path d="M 40.578125 39.3125 
Q 47.65625 37.796875 51.625 33 
Q 55.609375 28.21875 55.609375 21.1875 
Q 55.609375 10.40625 48.1875 4.484375 
Q 40.765625 -1.421875 27.09375 -1.421875 
Q 22.515625 -1.421875 17.65625 -0.515625 
Q 12.796875 0.390625 7.625 2.203125 
L 7.625 11.71875 
Q 11.71875 9.328125 16.59375 8.109375 
Q 21.484375 6.890625 26.8125 6.890625 
Q 36.078125 6.890625 40.9375 10.546875 
Q 45.796875 14.203125 45.796875 21.1875 
Q 45.796875 27.640625 41.28125 31.265625 
Q 36.765625 34.90625 28.71875 34.90625 
L 20.21875 34.90625 
L 20.21875 43.015625 
L 29.109375 43.015625 
Q 36.375 43.015625 40.234375 45.921875 
Q 44.09375 48.828125 44.09375 54.296875 
Q 44.09375 59.90625 40.109375 62.90625 
Q 36.140625 65.921875 28.71875 65.921875 
Q 24.65625 65.921875 20.015625 65.03125 
Q 15.375 64.15625 9.8125 62.3125 
L 9.8125 71.09375 
Q 15.4375 72.65625 20.34375 73.4375 
Q 25.25 74.21875 29.59375 74.21875 
Q 40.828125 74.21875 47.359375 69.109375 
Q 53.90625 64.015625 53.90625 55.328125 
Q 53.90625 49.265625 50.4375 45.09375 
Q 46.96875 40.921875 40.578125 39.3125 
z
" id="DejaVuSans-51"/>
     </defs>
     <use xlink:href="#DejaVuSans-86"/>
     <use x="68.408203" xlink:href="#DejaVuSans-32"/>
     <use x="100.195312" xlink:href="#DejaVuSans-61"/>
     <use x="183.984375" xlink:href="#DejaVuSans-32"/>
     <use x="215.771484" xlink:href="#DejaVuSans-57"/>
     <use x="279.394531" xlink:href="#DejaVuSans-54"/>
     <use x="343.017578" xlink:href="#DejaVuSans-46"/>
     <use x="374.804688" xlink:href="#DejaVuSans-51"/>
     <use x="438.427734" xlink:href="#DejaVuSans-54"/>
     <use x="502.050781" xlink:href="#DejaVuSans-32"/>
     <use x="533.837891" xlink:href="#DejaVuSans-91"/>
     <use x="572.851562" xlink:href="#DejaVuSans-109"/>
     <use x="670.263672" xlink:href="#DejaVuSans-47"/>
     <use x="703.955078" xlink:href="#DejaVuSans-115"/>
     <use x="756.054688" xlink:href="#DejaVuSans-93"/>
    </g>
   </g>
   <g id="text_19">
    <!-- P3: n = -3.0 -->
    <g transform="translate(333.848317 465.334065)scale(0.09 -0.09)">
     <defs>
      <path d="M 4.890625 31.390625 
L 31.203125 31.390625 
L 31.203125 23.390625 
L 4.890625 23.390625 
z
" id="DejaVuSans-45"/>
     </defs>
     <use xlink:href="#DejaVuSans-80"/>
     <use x="60.302734" xlink:href="#DejaVuSans-51"/>
     <use x="123.925781" xlink:href="#DejaVuSans-58"/>
     <use x="157.617188" xlink:href="#DejaVuSans-32"/>
     <use x="189.404297" xlink:href="#DejaVuSans-110"/>
     <use x="252.783203" xlink:href="#DejaVuSans-32"/>
     <use x="284.570312" xlink:href="#DejaVuSans-61"/>
     <use x="368.359375" xlink:href="#DejaVuSans-32"/>
     <use x="400.146484" xlink:href="#DejaVuSans-45"/>
     <use x="436.230469" xlink:href="#DejaVuSans-51"/>
     <use x="499.853516" xlink:href="#DejaVuSans-46"/>
     <use x="531.640625" xlink:href="#DejaVuSans-48"/>
    </g>
    <!-- V = 82.90 [m/s] -->
    <g transform="translate(333.848317 475.412096)scale(0.09 -0.09)">
     <use xlink:href="#DejaVuSans-86"/>
     <use x="68.408203" xlink:href="#DejaVuSans-32"/>
     <use x="100.195312" xlink:href="#DejaVuSans-61"/>
     <use x="183.984375" xlink:href="#DejaVuSans-32"/>
     <use x="215.771484" xlink:href="#DejaVuSans-56"/>
     <use x="279.394531" xlink:href="#DejaVuSans-50"/>
     <use x="343.017578" xlink:href="#DejaVuSans-46"/>
     <use x="374.804688" xlink:href="#DejaVuSans-57"/>
     <use x="438.427734" xlink:href="#DejaVuSans-48"/>
     <use x="502.050781" xlink:href="#DejaVuSans-32"/>
     <use x="533.837891" xlink:href="#DejaVuSans-91"/>
     <use x="572.851562" xlink:href="#DejaVuSans-109"/>
     <use x="670.263672" xlink:href="#DejaVuSans-47"/>
     <use x="703.955078" xlink:href="#DejaVuSans-115"/>
     <use x="756.054688" xlink:href="#DejaVuSans-93"/>
    </g>
   </g>
   <g id="text_20">
    <!-- P2: n = 7.5 -->
    <g transform="translate(541.819476 101.40041)scale(0.09 -0.09)">
     <use xlink:href="#DejaVuSans-80"/>
     <use x="60.302734" xlink:href="#DejaVuSans-50"/>
     <use x="123.925781" xlink:href="#DejaVuSans-58"/>
     <use x="157.617188" xlink:href="#DejaVuSans-32"/>
     <use x="189.404297" xlink:href="#DejaVuSans-110"/>
     <use x="252.783203" xlink:href="#DejaVuSans-32"/>
     <use x="284.570312" xlink:href="#DejaVuSans-61"/>
     <use x="368.359375" xlink:href="#DejaVuSans-32"/>
     <use x="400.146484" xlink:href="#DejaVuSans-55"/>
     <use x="463.769531" xlink:href="#DejaVuSans-46"/>
     <use x="495.556641" xlink:href="#DejaVuSans-53"/>
    </g>
    <!-- V = 176.48 [m/s] -->
    <g transform="translate(541.819476 111.478442)scale(0.09 -0.09)">
     <use xlink:href="#DejaVuSans-86"/>
     <use x="68.408203" xlink:href="#DejaVuSans-32"/>
     <use x="100.195312" xlink:href="#DejaVuSans-61"/>
     <use x="183.984375" xlink:href="#DejaVuSans-32"/>
     <use x="215.771484" xlink:href="#DejaVuSans-49"/>
     <use x="279.394531" xlink:href="#DejaVuSans-55"/>
     <use x="343.017578" xlink:href="#DejaVuSans-54"/>
     <use x="406.640625" xlink:href="#DejaVuSans-46"/>
     <use x="438.427734" xlink:href="#DejaVuSans-52"/>
     <use x="502.050781" xlink:href="#DejaVuSans-56"/>
     <use x="565.673828" xlink:href="#DejaVuSans-32"/>
     <use x="597.460938" xlink:href="#DejaVuSans-91"/>
     <use x="636.474609" xlink:href="#DejaVuSans-109"/>
     <use x="733.886719" xlink:href="#DejaVuSans-47"/>
     <use x="767.578125" xlink:href="#DejaVuSans-115"/>
     <use x="819.677734" xlink:href="#DejaVuSans-93"/>
    </g>
   </g>
   <g id="text_21">
    <!-- P4: n = -3.0 -->
    <g transform="translate(439.448771 466.624306)scale(0.09 -0.09)">
     <use xlink:href="#DejaVuSans-80"/>
     <use x="60.302734" xlink:href="#DejaVuSans-52"/>
     <use x="123.925781" xlink:href="#DejaVuSans-58"/>
     <use x="157.617188" xlink:href="#DejaVuSans-32"/>
     <use x="189.404297" xlink:href="#DejaVuSans-110"/>
     <use x="252.783203" xlink:href="#DejaVuSans-32"/>
     <use x="284.570312" xlink:href="#DejaVuSans-61"/>
     <use x="368.359375" xlink:href="#DejaVuSans-32"/>
     <use x="400.146484" xlink:href="#DejaVuSans-45"/>
     <use x="436.230469" xlink:href="#DejaVuSans-51"/>
     <use x="499.853516" xlink:href="#DejaVuSans-46"/>
     <use x="531.640625" xlink:href="#DejaVuSans-48"/>
    </g>
    <!-- V = 141.18 [m/s] -->
    <g transform="translate(439.448771 476.702338)scale(0.09 -0.09)">
     <use xlink:href="#DejaVuSans-86"/>
     <use x="68.408203" xlink:href="#DejaVuSans-32"/>
     <use x="100.195312" xlink:href="#DejaVuSans-61"/>
     <use x="183.984375" xlink:href="#DejaVuSans-32"/>
     <use x="215.771484" xlink:href="#DejaVuSans-49"/>
     <use x="279.394531" xlink:href="#DejaVuSans-52"/>
     <use x="343.017578" xlink:href="#DejaVuSans-49"/>
     <use x="406.640625" xlink:href="#DejaVuSans-46"/>
     <use x="438.427734" xlink:href="#DejaVuSans-49"/>
     <use x="502.050781" xlink:href="#DejaVuSans-56"/>
     <use x="565.673828" xlink:href="#DejaVuSans-32"/>
     <use x="597.460938" xlink:href="#DejaVuSans-91"/>
     <use x="636.474609" xlink:href="#DejaVuSans-109"/>
     <use x="733.886719" xlink:href="#DejaVuSans-47"/>
     <use x="767.578125" xlink:href="#DejaVuSans-115"/>
     <use x="819.677734" xlink:href="#DejaVuSans-93"/>
    </g>
   </g>
   <g id="text_22">
    <!-- P5: n = -1.06 -->
    <g transform="translate(541.301876 391.954476)scale(0.09 -0.09)">
     <use xlink:href="#DejaVuSans-80"/>
     <use x="60.302734" xlink:href="#DejaVuSans-53"/>
     <use x="123.925781" xlink:href="#DejaVuSans-58"/>
     <use x="157.617188" xlink:href="#DejaVuSans-32"/>
     <use x="189.404297" xlink:href="#DejaVuSans-110"/>
     <use x="252.783203" xlink:href="#DejaVuSans-32"/>
     <use x="284.570312" xlink:href="#DejaVuSans-61"/>
     <use x="368.359375" xlink:href="#DejaVuSans-32"/>
     <use x="400.146484" xlink:href="#DejaVuSans-45"/>
     <use x="436.230469" xlink:href="#DejaVuSans-49"/>
     <use x="499.853516" xlink:href="#DejaVuSans-46"/>
     <use x="531.640625" xlink:href="#DejaVuSans-48"/>
     <use x="595.263672" xlink:href="#DejaVuSans-54"/>
    </g>
    <!-- V = 176.48 [m/s] -->
    <g transform="translate(541.301876 402.032507)scale(0.09 -0.09)">
     <use xlink:href="#DejaVuSans-86"/>
     <use x="68.408203" xlink:href="#DejaVuSans-32"/>
     <use x="100.195312" xlink:href="#DejaVuSans-61"/>
     <use x="183.984375" xlink:href="#DejaVuSans-32"/>
     <use x="215.771484" xlink:href="#DejaVuSans-49"/>
     <use x="279.394531" xlink:href="#DejaVuSans-55"/>
     <use x="343.017578" xlink:href="#DejaVuSans-54"/>
     <use x="406.640625" xlink:href="#DejaVuSans-46"/>
     <use x="438.427734" xlink:href="#DejaVuSans-52"/>
     <use x="502.050781" xlink:href="#DejaVuSans-56"/>
     <use x="565.673828" xlink:href="#DejaVuSans-32"/>
     <use x="597.460938" xlink:href="#DejaVuSans-91"/>
     <use x="636.474609" xlink:href="#DejaVuSans-109"/>
     <use x="733.886719" xlink:href="#DejaVuSans-47"/>
     <use x="767.578125" xlink:href="#DejaVuSans-115"/>
     <use x="819.677734" xlink:href="#DejaVuSans-93"/>
    </g>
   </g>
  </g>
 </g>
 <defs>
  <clipPath id="p8a8741a0eb">
   <rect height="434.88" width="558" x="90" y="69.12"/>
  </clipPath>
 </defs>
</svg>
